<?xml version="1.0" standalone="no"?>
<!DOCTYPE svg PUBLIC "-//W3C//DTD SVG 20010904//EN"
 "http://www.w3.org/TR/2001/REC-SVG-20010904/DTD/svg10.dtd">
<svg version="1.0" xmlns="http://www.w3.org/2000/svg"
 width="1500.000000pt" height="1500.000000pt" viewBox="0 0 1500.000000 1500.000000"
 preserveAspectRatio="xMidYMid meet">

<g transform="translate(0.000000,1500.000000) scale(0.100000,-0.100000)"
fill="goldenrod" stroke="none">
<path d="M11490 14764 c-19 -2 -78 -9 -130 -15 -909 -103 -1728 -644 -2189
-1444 -182 -315 -301 -665 -358 -1050 -25 -170 -25 -591 0 -760 63 -419 181
-765 376 -1095 39 -65 71 -121 71 -124 0 -7 -178 -126 -310 -208 -613 -377
-1180 -598 -1535 -598 -386 0 -1039 269 -1687 696 l-157 103 61 103 c157 263
279 574 342 873 50 241 60 343 60 615 0 275 -16 423 -70 649 -254 1075 -1088
1915 -2151 2167 -386 91 -784 104 -1168 39 -596 -102 -1141 -383 -1564 -806
-756 -757 -1035 -1872 -725 -2896 181 -600 576 -1151 1084 -1513 400 -285 872
-467 1365 -525 170 -20 500 -20 669 0 396 47 775 171 1109 364 59 33 110 61
114 61 9 0 149 -212 238 -360 360 -594 567 -1136 567 -1480 0 -337 -193 -851
-540 -1435 -92 -156 -263 -415 -272 -415 -5 0 -43 20 -85 45 -344 204 -750
336 -1170 381 -178 19 -529 14 -691 -10 -485 -72 -893 -234 -1289 -511 -137
-96 -267 -209 -410 -356 -1098 -1134 -1082 -2942 35 -4059 774 -774 1910
-1044 2960 -705 964 312 1713 1138 1930 2130 53 241 64 347 64 625 0 272 -10
375 -60 615 -65 308 -205 658 -365 910 -21 34 -39 65 -39 69 0 12 310 211 483
310 477 273 895 441 1216 487 336 48 843 -111 1451 -454 211 -119 540 -328
540 -343 0 -4 -22 -43 -48 -88 -80 -133 -117 -204 -175 -336 -434 -990 -286
-2125 389 -2980 92 -117 359 -381 474 -470 225 -173 532 -346 773 -435 212
-77 462 -138 687 -167 169 -21 574 -16 740 10 695 107 1297 423 1737 912 765
849 973 2038 537 3077 -452 1080 -1508 1783 -2678 1783 -524 0 -1036 -138
-1471 -395 -42 -25 -80 -45 -85 -45 -4 0 -48 62 -98 138 -451 687 -714 1319
-714 1712 0 397 282 1066 734 1743 l79 118 27 -19 c15 -11 77 -46 137 -80 282
-156 622 -270 968 -324 121 -19 183 -22 417 -22 235 0 296 3 419 22 620 97
1167 367 1604 792 255 247 436 495 587 805 499 1020 363 2218 -353 3105 -103
128 -329 350 -457 449 -417 324 -876 518 -1410 596 -100 15 -513 28 -590 19z
m590 -289 c146 -22 387 -83 516 -130 149 -54 404 -183 539 -272 887 -584 1338
-1627 1154 -2666 -93 -524 -347 -1012 -725 -1391 -768 -769 -1926 -991 -2920
-561 -162 69 -346 174 -339 192 6 18 212 288 230 303 10 8 35 -1 106 -41 263
-148 548 -239 862 -274 422 -47 864 35 1259 236 217 109 392 236 576 418 87
86 119 111 140 111 54 1 198 88 213 128 24 68 -73 171 -480 505 -245 200 -352
266 -655 402 -93 41 -171 77 -174 79 -2 3 13 38 33 78 52 106 71 224 56 345
-6 51 -22 121 -35 157 -84 222 -333 450 -548 501 -82 19 -248 19 -321 0 -67
-17 -162 -63 -204 -99 -17 -14 -35 -26 -40 -26 -4 0 -42 30 -83 66 -192 170
-421 346 -609 470 l-105 68 60 53 c484 438 1160 568 1761 339 415 -158 744
-456 944 -854 32 -65 59 -114 59 -111 0 14 -64 160 -109 246 -101 191 -273
401 -438 535 -464 377 -1076 503 -1656 342 -252 -70 -528 -221 -718 -393 l-66
-59 -144 72 c-242 121 -330 125 -469 19 -25 -19 -48 -44 -53 -55 -22 -59 95
-184 433 -462 300 -247 391 -303 780 -476 102 -45 186 -84 188 -85 4 -4 -217
-387 -290 -504 -107 -170 -198 -284 -342 -426 -188 -187 -582 -535 -604 -535
-11 0 -106 164 -151 260 -56 122 -105 258 -140 390 -39 148 -40 117 -2 -43 49
-203 152 -463 234 -594 l26 -42 -47 -39 c-26 -21 -103 -80 -171 -131 -96 -73
-125 -90 -133 -80 -184 274 -337 682 -394 1049 -21 143 -30 486 -15 636 91
903 643 1700 1456 2099 286 140 552 220 869 260 152 19 531 14 686 -10z
m-8730 5 c1143 -103 2071 -895 2344 -2000 49 -201 66 -325 73 -541 13 -422
-67 -819 -244 -1199 -54 -117 -163 -310 -175 -310 -18 0 -527 398 -602 471 -6
5 18 62 59 144 l69 135 170 -6 c202 -8 266 2 329 49 49 38 127 151 127 185 0
72 -137 131 -645 277 -281 80 -365 94 -665 108 l-245 12 -103 180 c-238 419
-368 555 -578 610 -74 19 -239 19 -322 0 -128 -30 -258 -114 -383 -246 l-66
-71 -149 47 c-367 114 -894 215 -1126 215 -32 0 -58 2 -58 4 0 16 81 208 122
289 309 616 908 1044 1599 1143 169 24 448 22 616 -5 589 -93 1102 -411 1456
-901 16 -23 17 -23 7 -2 -27 57 -198 268 -300 370 -375 377 -859 595 -1422
643 -175 14 -367 2 -568 -37 -669 -129 -1245 -555 -1563 -1154 -54 -103 -123
-258 -147 -333 -7 -23 -22 -43 -38 -51 -58 -31 -152 -156 -152 -203 0 -28 59
-79 126 -108 139 -61 663 -216 834 -246 79 -14 194 -23 365 -29 138 -5 251 -9
253 -9 1 -1 2 -20 2 -43 1 -85 29 -202 66 -278 28 -56 58 -96 118 -155 96 -96
177 -151 476 -323 423 -242 507 -305 753 -555 215 -219 208 -193 68 -259 -125
-58 -202 -86 -331 -118 -459 -112 -953 -29 -1353 227 -82 52 -128 88 -242 187
l-80 70 75 -78 c250 -258 563 -426 939 -504 114 -23 147 -26 346 -26 199 1
232 3 342 27 145 31 305 83 421 137 46 22 89 37 94 34 37 -23 507 -619 496
-629 -21 -22 -252 -143 -348 -184 -561 -237 -1140 -280 -1725 -130 -346 90
-713 274 -991 499 -100 81 -302 282 -381 380 -300 373 -492 807 -568 1286 -22
141 -30 453 -16 609 63 665 363 1273 848 1717 532 488 1279 742 1993 678z
m680 -3178 c30 -36 144 -155 253 -265 l197 -200 -36 -43 -35 -44 -73 77 c-151
160 -289 332 -393 488 -59 90 -59 86 -11 69 32 -11 58 -33 98 -82z m453 -56
c67 -13 139 -27 159 -30 l37 -7 -13 -38 c-8 -20 -26 -61 -40 -90 l-27 -52
-124 117 c-69 64 -125 118 -125 120 0 6 2 6 133 -20z m7742 -108 c299 -258
578 -449 932 -640 l82 -44 -87 -85 c-181 -178 -348 -297 -565 -404 -294 -145
-596 -215 -937 -215 -283 -1 -513 42 -776 143 -99 38 -274 123 -274 133 0 20
295 356 481 549 201 208 339 308 734 535 127 72 234 136 240 141 5 5 14 9 20
9 5 -1 73 -55 150 -122z m-745 58 c0 -2 -35 -30 -77 -62 -267 -199 -580 -500
-861 -826 -74 -87 -138 -158 -141 -158 -3 0 -26 18 -50 39 -54 46 -63 28 115
223 275 300 631 587 914 737 100 53 100 53 100 47z m-6785 -542 c87 -74 242
-196 385 -303 69 -52 129 -97 134 -102 9 -8 -60 -99 -76 -99 -26 0 -401 292
-543 423 l-70 64 39 47 c43 53 32 55 131 -30z m5623 -524 l43 -38 -122 -161
c-67 -89 -125 -161 -129 -161 -4 0 -28 16 -53 36 l-47 37 47 66 c82 117 197
261 208 261 5 -1 29 -18 53 -40z m-4810 -78 c179 -121 548 -342 837 -502 83
-45 155 -87 160 -92 11 -10 -77 21 -265 95 -132 51 -410 179 -520 239 -213
116 -350 200 -343 211 11 20 66 87 70 87 2 0 30 -17 61 -38z m4450 -508 c2 -2
-9 -22 -26 -46 -115 -169 -340 -541 -541 -898 -92 -162 -92 -158 -11 55 110
287 262 597 432 883 l49 82 47 -37 c26 -21 49 -38 50 -39z m-2333 -515 c434
-56 842 -329 1071 -715 269 -455 274 -1029 13 -1486 -247 -432 -695 -714
-1184 -747 -432 -28 -824 111 -1132 402 -300 285 -463 663 -463 1077 0 414
163 793 463 1077 333 315 765 452 1232 392z m-2144 -2480 c-77 -208 -115 -298
-205 -484 -121 -249 -291 -555 -309 -555 -5 0 -28 16 -53 36 l-43 36 38 56
c133 199 352 563 522 869 46 83 85 150 87 149 1 -2 -15 -50 -37 -107z m-1922
-698 c333 -58 629 -163 904 -323 48 -28 67 -44 63 -54 -3 -9 -53 -78 -112
-154 l-105 -138 -77 45 c-300 178 -670 285 -1036 300 -159 6 -159 6 -208 39
-53 36 -95 51 -173 60 -58 7 -74 -5 -96 -71 -17 -50 -17 -309 0 -595 21 -347
43 -460 158 -800 36 -106 62 -195 56 -197 -5 -2 -59 -33 -119 -69 -289 -174
-413 -317 -450 -524 -46 -257 62 -506 303 -701 76 -60 219 -139 254 -139 10 0
20 -3 23 -8 2 -4 9 -102 15 -217 13 -232 32 -420 61 -596 11 -64 20 -120 20
-124 0 -11 -149 3 -270 27 -220 42 -452 140 -643 271 -141 97 -340 298 -436
440 -133 198 -227 426 -273 666 -18 95 -22 151 -22 306 0 263 29 417 124 658
21 53 36 97 34 97 -2 0 -22 -39 -45 -87 -228 -496 -223 -1049 15 -1544 211
-441 606 -782 1086 -939 111 -37 168 -48 429 -88 l44 -7 34 -125 c75 -277 140
-351 336 -386 110 -19 129 86 103 576 -25 445 -36 509 -158 878 -38 118 -68
215 -66 216 1 2 32 18 68 37 81 43 186 146 266 264 34 50 114 181 177 291 236
412 317 525 516 724 186 186 575 531 585 519 68 -86 183 -327 240 -499 25 -75
57 -199 72 -276 26 -128 28 -159 28 -384 1 -263 -8 -347 -59 -547 -64 -247
-201 -540 -347 -738 l-30 -40 32 35 c47 52 141 193 205 309 263 474 336 1064
200 1601 -47 185 -141 419 -223 554 -30 50 -33 61 -21 70 239 184 302 227 311
215 91 -136 211 -380 272 -556 45 -130 101 -358 121 -493 23 -148 30 -459 16
-616 -47 -501 -238 -984 -549 -1383 -88 -113 -273 -304 -392 -403 -370 -311
-841 -516 -1355 -590 -141 -20 -561 -17 -710 6 -575 87 -1092 349 -1495 756
-625 631 -889 1542 -700 2414 85 388 271 773 527 1091 104 129 321 340 449
437 358 271 747 437 1185 507 179 29 180 29 459 26 206 -2 279 -7 379 -24z
m8551 0 c292 -50 529 -129 787 -260 803 -408 1340 -1202 1424 -2105 14 -157 7
-457 -16 -606 -125 -827 -611 -1532 -1330 -1933 -266 -149 -576 -253 -900
-303 -150 -24 -579 -27 -720 -6 -500 75 -948 268 -1320 569 -121 98 -326 306
-417 423 -194 251 -339 528 -437 835 -136 424 -157 904 -61 1349 64 292 208
639 359 865 7 11 44 -13 170 -108 88 -67 163 -126 166 -132 4 -5 -9 -35 -28
-67 -150 -252 -245 -507 -297 -792 -30 -167 -38 -453 -16 -629 32 -262 101
-492 218 -730 182 -372 455 -678 806 -905 103 -67 333 -186 359 -186 7 0 18
-12 23 -26 18 -46 51 -85 113 -130 36 -27 70 -44 87 -44 41 0 85 55 146 185
58 122 230 578 263 695 32 117 58 287 77 505 l17 200 116 -3 c81 -3 136 1 183
12 177 41 372 192 495 384 83 129 117 302 90 457 -28 159 -103 276 -253 395
l-71 56 59 145 c77 187 159 435 208 622 22 82 41 152 44 155 8 7 193 -101 271
-158 290 -216 499 -505 609 -842 114 -346 113 -719 -1 -1073 -35 -109 -130
-306 -195 -407 -70 -107 -190 -249 -281 -334 -48 -44 -57 -55 -27 -33 81 60
274 262 342 359 74 104 181 305 221 415 251 683 75 1442 -449 1945 -127 122
-271 228 -392 289 -59 30 -63 34 -58 59 14 66 36 242 36 294 0 86 -18 154 -54
201 -41 53 -131 117 -166 117 -71 0 -131 -113 -298 -560 -131 -349 -156 -458
-187 -800 -9 -102 -18 -186 -20 -189 -6 -6 -205 112 -330 195 -159 105 -255
185 -390 326 -184 190 -505 555 -505 574 0 4 8 13 18 21 15 13 14 13 -7 2 -29
-14 -15 -27 -176 183 -58 75 -108 143 -111 152 -4 10 16 27 68 57 284 166 658
290 1006 334 166 21 571 13 732 -14z m-3520 -284 c132 -51 410 -179 520 -239
126 -69 349 -199 354 -206 2 -4 -13 -27 -34 -52 -33 -38 -42 -43 -57 -34 -10
6 -89 57 -175 112 -176 113 -489 298 -713 422 -82 45 -154 87 -160 92 -11 10
77 -21 265 -95z m-3808 -259 l38 -33 -78 -106 c-109 -149 -142 -189 -155 -189
-7 1 -31 18 -54 38 l-42 37 112 151 c122 165 115 160 179 102z m-1362 18 c239
-30 444 -90 658 -192 104 -49 132 -67 125 -78 -34 -59 -450 -515 -577 -633
-68 -62 -294 -233 -308 -233 -3 0 -8 48 -12 108 -21 338 -80 688 -172 1020 -6
22 -5 22 83 22 49 0 140 -6 203 -14z m6421 -459 c75 -56 151 -114 169 -128
l33 -27 -42 -50 -43 -50 -168 126 c-93 70 -169 130 -169 133 -1 8 71 99 78 99
3 0 67 -46 142 -103z m-5385 41 c24 -18 43 -38 41 -45 -4 -23 -260 -293 -387
-408 -171 -155 -286 -247 -445 -353 -115 -77 -315 -191 -315 -179 0 3 35 31
78 63 262 196 606 527 864 831 56 67 107 123 112 123 5 0 29 -15 52 -32z
m5679 -273 c188 -160 432 -411 573 -588 146 -183 294 -411 339 -522 l12 -30
-22 29 c-279 365 -647 741 -1011 1031 l-37 30 37 48 c20 26 41 47 47 47 5 0
33 -20 62 -45z m-160 -324 c305 -255 598 -539 703 -682 92 -125 165 -242 308
-491 102 -178 190 -316 254 -398 l20 -25 -61 -145 c-81 -192 -188 -516 -238
-720 -41 -167 -91 -432 -91 -482 0 -16 -5 -28 -11 -28 -7 0 -54 20 -106 45
-414 196 -764 539 -973 955 -223 445 -282 965 -164 1454 56 233 222 620 257
599 7 -4 53 -41 102 -82z"/>
<path d="M9532 11520 c0 -14 2 -19 5 -12 2 6 2 18 0 25 -3 6 -5 1 -5 -13z"/>
<path d="M7296 8719 c-267 -26 -543 -161 -729 -358 -206 -219 -317 -499 -317
-801 0 -861 902 -1423 1676 -1045 405 197 654 595 654 1045 0 368 -170 710
-463 931 -102 77 -276 162 -397 193 -79 21 -288 50 -325 45 -5 -1 -50 -6 -99
-10z m276 -333 c322 -62 581 -308 664 -631 24 -96 24 -294 0 -390 -69 -267
-264 -491 -510 -586 -481 -186 -1003 85 -1132 586 -24 96 -24 294 0 390 82
320 340 567 656 630 88 18 232 18 322 1z"/>
<path d="M7322 8250 c-225 -31 -429 -176 -527 -375 -174 -350 -36 -765 310
-935 109 -54 189 -73 310 -73 121 0 201 19 310 73 136 67 247 175 311 305 172
351 35 765 -311 935 -128 64 -269 88 -403 70z m129 -154 c16 -75 7 -208 -20
-278 -47 -123 -155 -228 -286 -278 -47 -19 -80 -24 -155 -24 -53 0 -112 5
-132 13 -35 11 -38 16 -38 49 0 67 29 176 66 252 89 179 301 317 491 319 l62
1 12 -54z m-7 -502 c9 -8 16 -24 16 -34 0 -22 -25 -50 -45 -50 -20 0 -45 28
-45 50 0 22 25 50 45 50 7 0 21 -7 29 -16z m512 -267 c12 -12 -61 -123 -120
-183 -57 -57 -156 -124 -183 -124 -19 0 -17 122 3 168 26 63 90 119 164 143
27 9 126 6 136 -4z"/>
</g>
</svg>
